# 3ds Max Wavefront OBJ Exporter v0.97b - (c)2007 guruware
# File Created: 25.05.2018 16:30:26

#
# object Ground
#

v  84.3462 0.0000 -90.7961
v  84.3462 0.0000 -0.0000
v  56.2308 0.0000 -0.0000
v  56.2308 0.0000 -90.7961
v  84.3462 0.0000 -110.3589
v  56.2308 0.0000 -110.3589
v  84.3462 0.0000 -129.9218
v  56.2308 0.0000 -129.9218
v  84.3462 0.0000 -149.4847
v  56.2308 0.0000 -149.4847
v  84.3462 0.0000 -169.0475
v  56.2308 0.0000 -169.0475
v  84.3462 0.0000 -188.6104
v  56.2308 0.0000 -188.6104
v  84.3462 0.0000 -296.0658
v  56.2308 0.0000 -296.0658
v  84.3462 34.0857 -0.0000
v  84.3462 34.0857 -90.7961
v  56.2308 34.0857 -90.7961
v  56.2308 34.0857 -0.0000
v  84.3462 16.8994 -90.7961
v  84.3462 16.8994 -110.3589
v  56.2308 16.8994 -110.3589
v  56.2308 16.8994 -90.7961
v  84.3462 34.0857 -110.3589
v  84.3462 34.0857 -129.9218
v  56.2308 34.0857 -129.9218
v  56.2308 34.0857 -110.3589
v  84.3462 34.0857 -149.4847
v  56.2308 34.0857 -149.4847
v  84.3462 34.0857 -169.0475
v  56.2308 34.0857 -169.0475
v  84.3462 17.0470 -169.0475
v  84.3462 17.0470 -188.6104
v  56.2308 17.0470 -188.6104
v  56.2308 17.0470 -169.0475
v  84.3462 34.0857 -188.6104
v  84.3462 34.0857 -296.0658
v  56.2308 34.0857 -296.0658
v  56.2308 34.0857 -188.6104
v  84.3462 17.0429 -0.0000
v  56.2308 17.0429 -0.0000
v  140.5771 0.0000 -90.7961
v  140.5771 17.0429 -90.7961
v  140.5771 17.0429 -0.0000
v  140.5771 0.0000 -0.0000
v  140.5771 0.0000 -110.3589
v  140.5771 17.0429 -110.3589
v  140.5771 0.0000 -129.9218
v  140.5771 17.0429 -129.9218
v  140.5771 0.0000 -149.4847
v  140.5771 17.0429 -149.4847
v  140.5771 0.0000 -169.0475
v  140.5771 17.0470 -169.0475
v  140.5771 0.0000 -188.6104
v  140.5771 17.0470 -188.6104
v  140.5771 0.0000 -296.0658
v  140.5771 17.0429 -296.0658
v  56.2308 17.0429 -296.0658
v  84.3462 17.0429 -296.0658
v  0.0000 0.0000 -188.6104
v  0.0000 17.0470 -188.6104
v  0.0000 17.0429 -296.0658
v  0.0000 0.0000 -296.0658
v  0.0000 0.0000 -169.0475
v  0.0000 17.0470 -169.0475
v  0.0000 0.0000 -149.4847
v  0.0000 17.0429 -149.4847
v  0.0000 0.0000 -129.9218
v  0.0000 17.0429 -129.9218
v  0.0000 0.0000 -110.3589
v  0.0000 17.0429 -110.3589
v  0.0000 0.0000 -90.7961
v  0.0000 17.0429 -90.7961
v  0.0000 0.0000 -0.0000
v  0.0000 17.0429 -0.0000
v  140.5771 34.0857 -90.7961
v  140.5771 34.0857 -0.0000
v  140.5771 34.0857 -129.9218
v  140.5771 34.0857 -110.3589
v  140.5771 34.0857 -149.4847
v  140.5771 34.0857 -169.0475
v  140.5771 34.0857 -296.0658
v  140.5771 34.0857 -188.6104
v  0.0000 34.0857 -188.6104
v  0.0000 34.0857 -296.0658
v  0.0000 34.0857 -149.4847
v  0.0000 34.0857 -169.0475
v  0.0000 34.0857 -129.9218
v  0.0000 34.0857 -110.3589
v  0.0000 34.0857 -0.0000
v  0.0000 34.0857 -90.7961
v  112.4616 0.0000 -0.0000
v  112.4616 0.0000 -90.7961
v  28.1154 0.0000 -90.7961
v  28.1154 0.0000 -0.0000
v  112.4616 0.0000 -110.3589
v  28.1154 0.0000 -110.3589
v  112.4616 0.0000 -129.9218
v  28.1154 0.0000 -129.9218
v  112.4616 0.0000 -149.4847
v  28.1154 0.0000 -149.4847
v  112.4616 0.0000 -169.0475
v  28.1154 0.0000 -169.0475
v  112.4616 0.0000 -188.6104
v  28.1154 0.0000 -188.6104
v  112.4616 0.0000 -296.0658
v  28.1154 0.0000 -296.0658
v  112.4616 34.0857 -90.7961
v  112.4616 34.0857 -0.0000
v  28.1154 34.0857 -0.0000
v  28.1154 34.0857 -90.7961
v  140.5771 16.8994 -90.7961
v  140.5771 16.8994 -110.3589
v  112.4616 16.8994 -110.3589
v  112.4616 16.8994 -90.7961
v  0.0000 16.8994 -110.3589
v  0.0000 16.8994 -90.7961
v  28.1154 16.8994 -90.7961
v  28.1154 16.8994 -110.3589
v  112.4616 34.0857 -129.9218
v  112.4616 34.0857 -110.3589
v  28.1154 34.0857 -110.3589
v  28.1154 34.0857 -129.9218
v  140.5771 119.5395 -129.9218
v  140.5771 119.5395 -149.4847
v  112.4616 119.5395 -149.4847
v  112.4616 119.5395 -129.9218
v  84.5182 119.5395 -149.4847
v  84.5182 119.5395 -129.9218
v  0.0000 119.5395 -149.4847
v  0.0000 119.5395 -129.9218
v  28.1154 119.5395 -129.9218
v  28.1154 119.5395 -149.4847
v  56.2308 119.5395 -129.9218
v  56.2308 119.5395 -149.4847
v  112.4616 34.0857 -169.0475
v  112.4616 34.0857 -149.4847
v  28.1154 34.0857 -149.4847
v  28.1154 34.0857 -169.0475
v  112.4616 17.0470 -188.6104
v  112.4616 17.0470 -169.0475
v  28.1154 17.0470 -169.0475
v  28.1154 17.0470 -188.6104
v  112.4616 34.0857 -296.0658
v  112.4616 34.0857 -188.6104
v  28.1154 34.0857 -188.6104
v  28.1154 34.0857 -296.0658
v  112.4616 17.0429 -0.0000
v  28.1154 17.0429 -0.0000
v  28.1154 17.0429 -296.0658
v  112.4616 17.0429 -296.0658
v  140.5771 99.8851 -129.9218
v  112.4616 99.8851 -129.9218
v  140.5771 99.8851 -149.4847
v  112.4616 99.8851 -149.4847
v  84.5182 99.8851 -149.4847
v  84.5182 99.8851 -129.9218
v  0.0000 99.8851 -129.9218
v  0.0000 99.8851 -149.4847
v  28.1154 99.8851 -129.9218
v  56.2308 99.8851 -129.9218
v  56.2308 99.8851 -149.4847
v  28.1154 99.8851 -149.4847
# 164 vertices

vn 0.0000 -1.0000 -0.0000
vn 0.0000 1.0000 -0.0000
vn 0.0000 0.0000 1.0000
vn 1.0000 0.0000 -0.0000
vn 0.0000 0.0000 -1.0000
vn -1.0000 0.0000 -0.0000
vn -1.0000 0.0026 -0.0000
# 7 vertex normals

vt 0.4000 0.1429 0.0000
vt 0.4000 0.0000 0.0000
vt 0.6000 0.0000 0.0000
vt 0.6000 0.1429 0.0000
vt 0.4000 0.2857 0.0000
vt 0.6000 0.2857 0.0000
vt 0.4000 0.4286 0.0000
vt 0.6000 0.4286 0.0000
vt 0.4000 0.5714 0.0000
vt 0.6000 0.5714 0.0000
vt 0.4000 0.7143 0.0000
vt 0.6000 0.7143 0.0000
vt 0.4000 0.8571 0.0000
vt 0.6000 0.8571 0.0000
vt 0.4000 1.0000 0.0000
vt 0.6000 1.0000 0.0000
vt 0.6000 0.5000 0.0000
vt 0.4000 0.5000 0.0000
vt 0.1429 0.0000 0.0000
vt 0.1429 0.5000 0.0000
vt 0.0000 0.5000 0.0000
vt 0.0000 0.0000 0.0000
vt 0.2857 0.0000 0.0000
vt 0.2857 0.5000 0.0000
vt 0.4286 0.0000 0.0000
vt 0.4286 0.5000 0.0000
vt 0.5714 0.0000 0.0000
vt 0.5714 0.5000 0.0000
vt 0.7143 0.0000 0.0000
vt 0.7143 0.5000 0.0000
vt 0.8571 0.0000 0.0000
vt 0.8571 0.5000 0.0000
vt 1.0000 0.0000 0.0000
vt 1.0000 0.5000 0.0000
vt 0.1429 1.0000 0.0000
vt 0.0000 1.0000 0.0000
vt 0.4286 1.0000 0.0000
vt 0.2857 1.0000 0.0000
vt 0.5714 1.0000 0.0000
vt 0.7143 1.0000 0.0000
vt 1.0000 1.0000 0.0000
vt 0.8571 1.0000 0.0000
vt 0.0000 0.1429 0.0000
vt 0.2000 0.0000 0.0000
vt 0.2000 0.1429 0.0000
vt 1.0000 0.1429 0.0000
vt 0.8000 0.1429 0.0000
vt 0.8000 0.0000 0.0000
vt 0.0000 0.2857 0.0000
vt 0.2000 0.2857 0.0000
vt 1.0000 0.2857 0.0000
vt 0.8000 0.2857 0.0000
vt 0.0000 0.4286 0.0000
vt 0.2000 0.4286 0.0000
vt 1.0000 0.4286 0.0000
vt 0.8000 0.4286 0.0000
vt 0.0000 0.5714 0.0000
vt 0.2000 0.5714 0.0000
vt 1.0000 0.5714 0.0000
vt 0.8000 0.5714 0.0000
vt 0.0000 0.7143 0.0000
vt 0.2000 0.7143 0.0000
vt 1.0000 0.7143 0.0000
vt 0.8000 0.7143 0.0000
vt 0.0000 0.8571 0.0000
vt 0.2000 0.8571 0.0000
vt 1.0000 0.8571 0.0000
vt 0.8000 0.8571 0.0000
vt 0.2000 1.0000 0.0000
vt 0.8000 1.0000 0.0000
vt 0.8000 0.5000 0.0000
vt 0.2000 0.5000 0.0000
# 72 texture coords

g Ground
s 2
f 1/1/1 2/2/1 3/3/1 
f 3/3/1 4/4/1 1/1/1 
f 5/5/1 1/1/1 4/4/1 
f 4/4/1 6/6/1 5/5/1 
f 7/7/1 5/5/1 6/6/1 
f 6/6/1 8/8/1 7/7/1 
f 9/9/1 7/7/1 8/8/1 
f 8/8/1 10/10/1 9/9/1 
f 11/11/1 9/9/1 10/10/1 
f 10/10/1 12/12/1 11/11/1 
f 13/13/1 11/11/1 12/12/1 
f 12/12/1 14/14/1 13/13/1 
f 15/15/1 13/13/1 14/14/1 
f 14/14/1 16/16/1 15/15/1 
s 4
f 17/3/2 18/4/2 19/1/2 
f 19/1/2 20/2/2 17/3/2 
f 21/4/2 22/6/2 23/5/2 
f 23/5/2 24/1/2 21/4/2 
f 25/6/2 26/8/2 27/7/2 
f 27/7/2 28/5/2 25/6/2 
f 26/8/2 29/10/2 30/9/2 
f 30/9/2 27/7/2 26/8/2 
f 29/10/2 31/12/2 32/11/2 
f 32/11/2 30/9/2 29/10/2 
f 33/12/2 34/14/2 35/13/2 
f 35/13/2 36/11/2 33/12/2 
f 37/14/2 38/16/2 39/15/2 
f 39/15/2 40/13/2 37/14/2 
s 8
f 2/3/3 41/17/3 42/18/3 
f 42/18/3 3/2/3 2/3/3 
s 16
f 43/19/4 44/20/4 45/21/4 
f 45/21/4 46/22/4 43/19/4 
f 47/23/4 48/24/4 44/20/4 
f 44/20/4 43/19/4 47/23/4 
f 49/25/4 50/26/4 48/24/4 
f 48/24/4 47/23/4 49/25/4 
f 51/27/4 52/28/4 50/26/4 
f 50/26/4 49/25/4 51/27/4 
f 53/29/4 54/30/4 52/28/4 
f 52/28/4 51/27/4 53/29/4 
f 55/31/4 56/32/4 54/30/4 
f 54/30/4 53/29/4 55/31/4 
f 57/33/4 58/34/4 56/32/4 
f 56/32/4 55/31/4 57/33/4 
s 32
f 16/3/5 59/17/5 60/18/5 
f 60/18/5 15/2/5 16/3/5 
s 64
f 61/19/6 62/20/6 63/21/6 
f 63/21/6 64/22/6 61/19/6 
f 65/23/6 66/24/6 62/20/6 
f 62/20/6 61/19/6 65/23/6 
f 67/25/6 68/26/6 66/24/6 
f 66/24/6 65/23/6 67/25/6 
f 69/27/6 70/28/6 68/26/6 
f 68/26/6 67/25/6 69/27/6 
f 71/29/6 72/30/6 70/28/6 
f 70/28/6 69/27/6 71/29/6 
f 73/31/6 74/32/6 72/30/6 
f 72/30/6 71/29/6 73/31/6 
f 75/33/6 76/34/6 74/32/6 
f 74/32/6 73/31/6 75/33/6 
s 8
f 20/15/3 42/18/3 41/17/3 
f 41/17/3 17/16/3 20/15/3 
s 16
f 77/35/4 78/36/4 45/21/4 
f 45/21/4 44/20/4 77/35/4 
f 79/37/4 80/38/4 48/24/4 
f 48/24/4 50/26/4 79/37/4 
f 81/39/4 79/37/4 50/26/4 
f 50/26/4 52/28/4 81/39/4 
f 82/40/4 81/39/4 52/28/4 
f 52/28/4 54/30/4 82/40/4 
f 83/41/4 84/42/4 56/32/4 
f 56/32/4 58/34/4 83/41/4 
s 32
f 38/15/5 60/18/5 59/17/5 
f 59/17/5 39/16/5 38/15/5 
s 64
f 85/35/6 86/36/6 63/21/6 
f 63/21/6 62/20/6 85/35/6 
f 87/37/6 88/38/6 66/24/6 
f 66/24/6 68/26/6 87/37/6 
f 89/39/6 87/37/6 68/26/6 
f 68/26/6 70/28/6 89/39/6 
f 90/40/6 89/39/6 70/28/6 
f 70/28/6 72/30/6 90/40/6 
f 91/41/6 92/42/6 74/32/6 
f 74/32/6 76/34/6 91/41/6 
s off
f 18/4/5 21/4/5 24/1/5 
f 24/1/5 19/1/5 18/4/5 
f 28/5/3 23/5/3 22/6/3 
f 22/6/3 25/6/3 28/5/3 
f 31/12/5 33/12/5 36/11/5 
f 36/11/5 32/11/5 31/12/5 
f 40/13/3 35/13/3 34/14/3 
f 34/14/3 37/14/3 40/13/3 
s 2
f 43/43/1 46/22/1 93/44/1 
f 93/44/1 94/45/1 43/43/1 
f 94/45/1 93/44/1 2/2/1 
f 2/2/1 1/1/1 94/45/1 
f 75/33/1 73/46/1 95/47/1 
f 95/47/1 96/48/1 75/33/1 
f 96/48/1 95/47/1 4/4/1 
f 4/4/1 3/3/1 96/48/1 
f 47/49/1 43/43/1 94/45/1 
f 94/45/1 97/50/1 47/49/1 
f 97/50/1 94/45/1 1/1/1 
f 1/1/1 5/5/1 97/50/1 
f 73/46/1 71/51/1 98/52/1 
f 98/52/1 95/47/1 73/46/1 
f 95/47/1 98/52/1 6/6/1 
f 6/6/1 4/4/1 95/47/1 
f 49/53/1 47/49/1 97/50/1 
f 97/50/1 99/54/1 49/53/1 
f 99/54/1 97/50/1 5/5/1 
f 5/5/1 7/7/1 99/54/1 
f 71/51/1 69/55/1 100/56/1 
f 100/56/1 98/52/1 71/51/1 
f 98/52/1 100/56/1 8/8/1 
f 8/8/1 6/6/1 98/52/1 
f 51/57/1 49/53/1 99/54/1 
f 99/54/1 101/58/1 51/57/1 
f 101/58/1 99/54/1 7/7/1 
f 7/7/1 9/9/1 101/58/1 
f 69/55/1 67/59/1 102/60/1 
f 102/60/1 100/56/1 69/55/1 
f 100/56/1 102/60/1 10/10/1 
f 10/10/1 8/8/1 100/56/1 
f 53/61/1 51/57/1 101/58/1 
f 101/58/1 103/62/1 53/61/1 
f 103/62/1 101/58/1 9/9/1 
f 9/9/1 11/11/1 103/62/1 
f 67/59/1 65/63/1 104/64/1 
f 104/64/1 102/60/1 67/59/1 
f 102/60/1 104/64/1 12/12/1 
f 12/12/1 10/10/1 102/60/1 
f 55/65/1 53/61/1 103/62/1 
f 103/62/1 105/66/1 55/65/1 
f 105/66/1 103/62/1 11/11/1 
f 11/11/1 13/13/1 105/66/1 
f 65/63/1 61/67/1 106/68/1 
f 106/68/1 104/64/1 65/63/1 
f 104/64/1 106/68/1 14/14/1 
f 14/14/1 12/12/1 104/64/1 
f 57/36/1 55/65/1 105/66/1 
f 105/66/1 107/69/1 57/36/1 
f 107/69/1 105/66/1 13/13/1 
f 13/13/1 15/15/1 107/69/1 
f 61/67/1 64/41/1 108/70/1 
f 108/70/1 106/68/1 61/67/1 
f 106/68/1 108/70/1 16/16/1 
f 16/16/1 14/14/1 106/68/1 
s 4
f 78/33/2 77/46/2 109/47/2 
f 109/47/2 110/48/2 78/33/2 
f 110/48/2 109/47/2 18/4/2 
f 18/4/2 17/3/2 110/48/2 
f 92/43/2 91/22/2 111/44/2 
f 111/44/2 112/45/2 92/43/2 
f 112/45/2 111/44/2 20/2/2 
f 20/2/2 19/1/2 112/45/2 
f 113/46/2 114/51/2 115/52/2 
f 115/52/2 116/47/2 113/46/2 
f 116/47/2 115/52/2 22/6/2 
f 22/6/2 21/4/2 116/47/2 
f 117/49/2 118/43/2 119/45/2 
f 119/45/2 120/50/2 117/49/2 
f 120/50/2 119/45/2 24/1/2 
f 24/1/2 23/5/2 120/50/2 
f 80/51/2 79/55/2 121/56/2 
f 121/56/2 122/52/2 80/51/2 
f 122/52/2 121/56/2 26/8/2 
f 26/8/2 25/6/2 122/52/2 
f 89/53/2 90/49/2 123/50/2 
f 123/50/2 124/54/2 89/53/2 
f 124/54/2 123/50/2 28/5/2 
f 28/5/2 27/7/2 124/54/2 
f 125/55/2 126/59/2 127/60/2 
f 127/60/2 128/56/2 125/55/2 
f 128/56/2 127/60/2 129/10/2 
f 129/10/2 130/8/2 128/56/2 
f 131/57/2 132/53/2 133/54/2 
f 133/54/2 134/58/2 131/57/2 
f 134/58/2 133/54/2 135/7/2 
f 135/7/2 136/9/2 134/58/2 
f 81/59/2 82/63/2 137/64/2 
f 137/64/2 138/60/2 81/59/2 
f 138/60/2 137/64/2 31/12/2 
f 31/12/2 29/10/2 138/60/2 
f 88/61/2 87/57/2 139/58/2 
f 139/58/2 140/62/2 88/61/2 
f 140/62/2 139/58/2 30/9/2 
f 30/9/2 32/11/2 140/62/2 
f 54/63/2 56/67/2 141/68/2 
f 141/68/2 142/64/2 54/63/2 
f 142/64/2 141/68/2 34/14/2 
f 34/14/2 33/12/2 142/64/2 
f 62/65/2 66/61/2 143/62/2 
f 143/62/2 144/66/2 62/65/2 
f 144/66/2 143/62/2 36/11/2 
f 36/11/2 35/13/2 144/66/2 
f 84/67/2 83/41/2 145/70/2 
f 145/70/2 146/68/2 84/67/2 
f 146/68/2 145/70/2 38/16/2 
f 38/16/2 37/14/2 146/68/2 
f 86/36/2 85/65/2 147/66/2 
f 147/66/2 148/69/2 86/36/2 
f 148/69/2 147/66/2 40/13/2 
f 40/13/2 39/15/2 148/69/2 
s 8
f 46/33/3 45/34/3 149/71/3 
f 149/71/3 93/48/3 46/33/3 
f 93/48/3 149/71/3 41/17/3 
f 41/17/3 2/3/3 93/48/3 
f 76/21/3 75/22/3 96/44/3 
f 96/44/3 150/72/3 76/21/3 
f 150/72/3 96/44/3 3/2/3 
f 3/2/3 42/18/3 150/72/3 
s 32
f 64/33/5 63/34/5 151/71/5 
f 151/71/5 108/48/5 64/33/5 
f 108/48/5 151/71/5 59/17/5 
f 59/17/5 16/3/5 108/48/5 
f 58/21/5 57/22/5 107/44/5 
f 107/44/5 152/72/5 58/21/5 
f 152/72/5 107/44/5 15/2/5 
f 15/2/5 60/18/5 152/72/5 
s 8
f 91/36/3 76/21/3 150/72/3 
f 150/72/3 111/69/3 91/36/3 
f 111/69/3 150/72/3 42/18/3 
f 42/18/3 20/15/3 111/69/3 
f 45/34/3 78/41/3 110/70/3 
f 110/70/3 149/71/3 45/34/3 
f 149/71/3 110/70/3 17/16/3 
f 17/16/3 41/17/3 149/71/3 
s 32
f 83/36/5 58/21/5 152/72/5 
f 152/72/5 145/69/5 83/36/5 
f 145/69/5 152/72/5 60/18/5 
f 60/18/5 38/15/5 145/69/5 
f 63/34/5 86/41/5 148/70/5 
f 148/70/5 151/71/5 63/34/5 
f 151/71/5 148/70/5 39/16/5 
f 39/16/5 59/17/5 151/71/5 
s off
f 77/46/5 113/46/5 116/47/5 
f 116/47/5 109/47/5 77/46/5 
f 109/47/5 116/47/5 21/4/5 
f 21/4/5 18/4/5 109/47/5 
f 118/43/5 92/43/5 112/45/5 
f 112/45/5 119/45/5 118/43/5 
f 119/45/5 112/45/5 19/1/5 
f 19/1/5 24/1/5 119/45/5 
f 90/49/3 117/49/3 120/50/3 
f 120/50/3 123/50/3 90/49/3 
f 123/50/3 120/50/3 23/5/3 
f 23/5/3 28/5/3 123/50/3 
f 114/51/3 80/51/3 122/52/3 
f 122/52/3 115/52/3 114/51/3 
f 115/52/3 122/52/3 25/6/3 
f 25/6/3 22/6/3 115/52/3 
f 82/63/5 54/63/5 142/64/5 
f 142/64/5 137/64/5 82/63/5 
f 137/64/5 142/64/5 33/12/5 
f 33/12/5 31/12/5 137/64/5 
f 66/61/5 88/61/5 140/62/5 
f 140/62/5 143/62/5 66/61/5 
f 143/62/5 140/62/5 32/11/5 
f 32/11/5 36/11/5 143/62/5 
f 85/65/3 62/65/3 144/66/3 
f 144/66/3 147/66/3 85/65/3 
f 147/66/3 144/66/3 35/13/3 
f 35/13/3 40/13/3 147/66/3 
f 56/67/3 84/67/3 146/68/3 
f 146/68/3 141/68/3 56/67/3 
f 141/68/3 146/68/3 37/14/3 
f 37/14/3 34/14/3 141/68/3 
f 79/55/3 153/55/3 154/56/3 
f 154/56/3 121/56/3 79/55/3 
f 81/59/4 155/59/4 153/55/4 
f 153/55/4 79/55/4 81/59/4 
f 138/60/5 156/60/5 155/59/5 
f 155/59/5 81/59/5 138/60/5 
f 29/10/5 157/10/5 156/60/5 
f 156/60/5 138/60/5 29/10/5 
f 26/8/7 158/8/7 157/10/7 
f 157/10/7 29/10/7 26/8/7 
f 121/56/3 154/56/3 158/8/3 
f 158/8/3 26/8/3 121/56/3 
f 89/53/6 159/53/6 160/57/6 
f 160/57/6 87/57/6 89/53/6 
f 124/54/3 161/54/3 159/53/3 
f 159/53/3 89/53/3 124/54/3 
f 27/7/3 162/7/3 161/54/3 
f 161/54/3 124/54/3 27/7/3 
f 30/9/4 163/9/4 162/7/4 
f 162/7/4 27/7/4 30/9/4 
f 139/58/5 164/58/5 163/9/5 
f 163/9/5 30/9/5 139/58/5 
f 87/57/5 160/57/5 164/58/5 
f 164/58/5 139/58/5 87/57/5 
f 125/55/3 128/56/3 154/56/3 
f 154/56/3 153/55/3 125/55/3 
f 126/59/4 125/55/4 153/55/4 
f 153/55/4 155/59/4 126/59/4 
f 127/60/5 126/59/5 155/59/5 
f 155/59/5 156/60/5 127/60/5 
f 129/10/5 127/60/5 156/60/5 
f 156/60/5 157/10/5 129/10/5 
f 128/56/3 130/8/3 158/8/3 
f 158/8/3 154/56/3 128/56/3 
f 132/53/6 131/57/6 160/57/6 
f 160/57/6 159/53/6 132/53/6 
f 133/54/3 132/53/3 159/53/3 
f 159/53/3 161/54/3 133/54/3 
f 135/7/3 133/54/3 161/54/3 
f 161/54/3 162/7/3 135/7/3 
f 134/58/5 136/9/5 163/9/5 
f 163/9/5 164/58/5 134/58/5 
f 131/57/5 134/58/5 164/58/5 
f 164/58/5 160/57/5 131/57/5 
f 136/9/2 135/7/2 130/7/2 
f 130/7/2 129/9/2 136/9/2 
f 135/7/3 162/7/3 158/7/3 
f 158/7/3 130/7/3 135/7/3 
f 162/7/1 163/9/1 157/9/1 
f 157/9/1 158/7/1 162/7/1 
f 163/9/5 136/9/5 129/9/5 
f 129/9/5 157/9/5 163/9/5 
# 320 faces

