# 3ds Max Wavefront OBJ Exporter v0.97b - (c)2007 guruware
# File Created: 07.07.2018 23:13:27

#
# object Mill
#

v  -1.7949 6.1134 6.2192
v  -1.7949 -9.5969 6.2192
v  -2.2930 -9.5969 6.4819
v  -2.2930 6.1134 6.4819
v  -4.7773 6.1134 0.5631
v  -5.2754 6.1134 0.8257
v  -7.6266 6.1134 -4.8408
v  -8.1248 6.1134 -4.5782
v  -3.1474 -15.4560 6.0186
v  -5.1837 -15.4560 2.1568
v  -6.0787 -23.2662 2.2668
v  -3.7438 -23.2662 6.6950
v  8.0558 15.0846 -6.2036
v  -6.1956 15.0846 1.3110
v  -2.3718 7.3480 8.5628
v  11.8795 7.3480 1.0483
v  13.8911 -23.9272 1.6708
v  -2.9944 -23.9272 10.5744
v  -11.8980 -23.9272 -6.3112
v  4.9876 -23.9272 -15.2147
v  10.4741 -10.3605 0.6132
v  -1.9368 -10.3605 7.1573
v  -2.4038 -10.8409 8.6660
v  11.9827 -10.8409 1.0802
v  3.9299 -10.3605 -11.7977
v  4.3969 -10.8409 -13.3063
v  -8.4809 -10.3605 -5.2536
v  -9.9896 -10.8409 -5.7205
v  -7.6266 -9.5969 -4.8408
v  -8.1248 -9.5969 -4.5782
v  9.5360 -9.5969 0.4712
v  -1.5241 -9.5969 6.3031
v  -1.2614 -9.5969 6.8012
v  9.7987 -9.5969 0.9693
v  9.5360 6.1134 0.4712
v  9.7987 6.1134 0.9693
v  -1.5241 6.1134 6.3031
v  -1.2614 6.1134 6.8012
v  -7.5428 -9.5969 -5.1116
v  3.5172 -9.5969 -10.9434
v  3.2545 -9.5969 -11.4415
v  -7.8055 -9.5969 -5.6097
v  4.3650 7.3480 -13.2032
v  -9.8864 7.3480 -5.6886
v  -1.9368 6.8770 7.1573
v  10.4741 6.8770 0.6132
v  7.1355 6.8770 -5.7184
v  -5.2754 6.8770 0.8257
v  3.9299 6.8770 -11.7977
v  -8.4809 6.8770 -5.2536
v  -4.6839 -23.1514 7.1908
v  -7.0189 -23.1514 2.7625
v  -7.5428 6.1134 -5.1116
v  -7.8055 6.1134 -5.6097
v  3.5172 6.1134 -10.9434
v  3.2545 6.1134 -11.4415
v  -4.0875 -15.3413 6.5144
v  -6.1238 -15.3413 2.6525
v  4.2861 -9.5969 -11.1222
v  10.1179 -9.5969 -0.0622
v  4.2861 6.1134 -11.1222
v  7.1355 6.1134 -5.7184
v  10.1179 6.1134 -0.0622
v  3.7880 -9.5969 -10.8596
v  9.6198 -9.5969 0.2005
v  3.7880 6.1134 -10.8596
v  6.6374 6.1134 -5.4557
v  9.6198 6.1134 0.2005
v  -11.5035 8.4536 -7.1941
v  -10.3215 8.4536 -7.8174
v  -6.5744 8.5559 -0.7110
v  -7.7564 8.5559 -0.0878
v  -13.8911 11.0956 -11.7223
v  -12.7091 11.0956 -12.3455
v  -13.3009 15.1656 -10.6030
v  -12.1189 15.1656 -11.2262
v  -10.6355 14.4393 -5.5480
v  -9.4535 14.4393 -6.1712
v  -7.5760 9.8000 0.2544
v  -6.3940 9.8000 -0.3689
v  -7.0890 10.5791 1.1779
v  -5.9070 10.5791 0.5547
v  -8.2923 18.1880 -1.1041
v  -7.1103 18.1880 -1.7273
v  -7.8581 23.8729 -0.2807
v  -6.6761 23.8729 -0.9040
v  -5.8704 23.9272 3.4891
v  -4.6883 23.9272 2.8659
v  -5.3688 18.2678 4.4402
v  -4.1868 18.2678 3.8170
v  -6.4814 10.5957 2.3302
v  -5.2994 10.5957 1.7070
v  -5.9853 9.8434 3.2711
v  -4.8033 9.8434 2.6478
v  -2.9819 14.6482 8.9671
v  -1.7999 14.6482 8.3438
v  -0.3260 15.5197 14.0041
v  0.8560 15.5197 13.3808
v  0.3124 11.4833 15.2147
v  1.4943 11.4833 14.5914
v  -2.0431 8.7118 10.7475
v  -0.8611 8.7118 10.1243
v  -5.7902 8.6096 3.6411
v  -4.6082 8.6096 3.0178
v  -5.9706 7.3656 3.2990
v  -4.7886 7.3656 2.6758
v  -2.9111 2.7262 9.1013
v  -1.7291 2.7262 8.4781
v  -1.7038 -2.4201 11.3910
v  -0.5218 -2.4201 10.7678
v  -3.2971 -4.9690 8.3694
v  -2.1151 -4.9690 7.7461
v  -5.2543 -1.0225 4.6574
v  -4.0723 -1.0225 4.0342
v  -6.4576 6.5865 2.3754
v  -5.2756 6.5865 1.7522
v  -7.0652 6.5699 1.2231
v  -5.8832 6.5699 0.5998
v  -8.1777 -1.1023 -0.8869
v  -6.9957 -1.1023 -1.5101
v  -10.0875 -5.1544 -4.5087
v  -8.9055 -5.1544 -5.1320
v  -11.7105 -2.6933 -7.5868
v  -10.5285 -2.6933 -8.2100
v  -10.5647 2.5173 -5.4137
v  -9.3827 2.5173 -6.0370
v  -7.5613 7.3222 0.2823
v  -6.3793 7.3222 -0.3410
v  -7.5735 9.3872 0.2590
v  -6.9051 10.4565 1.5267
v  -10.6937 14.1185 -5.6584
v  -13.1909 14.7990 -10.3944
v  -13.7036 11.2639 -11.3666
v  -11.4666 8.7887 -7.1242
v  -7.6452 8.8929 0.1231
v  -6.1530 7.2330 2.9532
v  -3.0328 2.5016 8.8706
v  -5.1193 -0.8363 4.9135
v  -6.3464 6.9235 2.5862
v  -2.0840 9.0448 10.6700
v  -2.9199 14.3307 9.0847
v  -5.9829 9.4306 3.2757
v  -5.9054 8.9404 3.4227
v  -6.3449 8.2374 2.5893
v  -7.1803 6.9007 1.0047
v  -6.7672 7.5616 1.7882
v  -7.2244 8.2549 0.9211
v  -7.3774 7.1996 0.6309
v  -8.3149 -0.9235 -1.1470
v  -10.4404 2.2995 -5.1780
v  -11.5139 -2.5823 -7.2139
v  -10.1042 -4.7200 -4.5404
v  -5.5291 18.2874 4.1362
v  -8.1323 18.2163 -0.8006
v  -6.6638 10.4631 1.9844
v  -6.5698 9.4146 2.1627
v  -7.0581 9.4013 1.2364
v  -7.7255 23.5426 -0.0292
v  -5.9990 23.5897 3.2451
v  -3.2855 -4.5339 8.3913
v  -1.9016 -2.3200 11.0158
v  -0.4315 15.1472 13.8039
v  0.1229 11.6413 14.8553
# 163 vertices

vn -0.4664 0.0000 -0.8846
vn 0.0000 -1.0000 -0.0000
vn -0.8795 0.1073 0.4637
vn 0.3201 0.7273 0.6071
vn 0.1843 0.9186 0.3496
vn 0.3496 0.9186 -0.1843
vn -0.1843 0.9186 -0.3496
vn -0.3496 0.9186 0.1843
vn 0.4664 0.0000 0.8846
vn 0.0000 1.0000 -0.0000
vn -0.8846 0.0000 0.4664
vn 0.8846 0.0000 -0.4664
vn -0.3261 0.7150 -0.6184
vn 0.1924 -0.9110 0.3648
vn 0.8060 -0.2192 -0.5498
vn -0.9090 -0.2192 0.3545
vn 0.9106 -0.2186 -0.3508
vn -0.1924 -0.9110 -0.3648
vn -0.8039 -0.2186 0.5532
vn 0.0949 0.9942 -0.0501
vn -0.4699 -0.0405 -0.8818
vn -0.0949 -0.9942 0.0501
vn 0.4622 -0.0405 0.8859
vn 0.4637 0.1073 0.8795
vn 0.8795 0.1073 -0.4637
vn -0.4637 0.1073 -0.8795
vn 0.0059 -0.9999 0.0113
vn -0.2139 -0.8886 -0.4057
vn -0.4454 0.2969 -0.8447
vn 0.0588 0.9920 0.1115
vn 0.2693 0.8164 0.5108
vn -0.2789 0.8015 -0.5290
vn -0.4417 -0.3211 -0.8377
vn -0.4603 0.1616 -0.8729
vn -0.0059 0.9999 -0.0113
vn 0.4582 0.1867 0.8690
vn 0.4454 -0.2969 0.8447
vn -0.0706 0.9885 -0.1338
vn 0.4417 0.3211 0.8377
vn 0.2244 -0.8767 0.4256
vn 0.4167 0.4493 0.7902
vn 0.2789 -0.8015 0.5290
vn -0.3195 -0.7285 -0.6060
vn 0.3281 -0.7108 0.6222
vn -0.2693 -0.8164 -0.5108
vn -0.4219 0.4265 -0.8001
vn 0.8846 -0.0000 -0.4664
vn 0.8846 0.0001 -0.4664
vn -0.8846 -0.0000 0.4664
vn 0.8845 -0.0000 -0.4665
vn -0.8845 0.0001 0.4665
vn 0.8846 -0.0001 -0.4664
vn -0.8846 0.0001 0.4664
vn -0.8846 -0.0001 0.4664
vn -0.8845 0.0000 0.4665
vn -0.8846 -0.0001 0.4663
vn -0.8845 -0.0001 0.4665
vn -0.8845 -0.0000 0.4665
vn -0.8845 0.0002 0.4665
vn -0.8845 -0.0000 0.4666
vn -0.8846 0.0000 0.4663
# 61 vertex normals

vt 1.0000 0.0000 0.0000
vt 1.0000 1.0000 0.0000
vt 0.0000 1.0000 0.0000
vt 0.0000 0.0000 0.0000
vt 0.8317 0.8317 0.0000
vt 0.1683 0.8317 0.0000
vt 0.1698 0.1698 0.0000
vt 0.8302 0.1698 0.0000
vt 0.9313 0.5088 0.0000
vt 0.0687 0.5088 0.0000
vt 0.0687 0.0687 0.0000
vt 0.9313 0.0687 0.0000
vt 0.9313 0.9313 0.0000
vt 0.0687 0.9313 0.0000
vt 0.0848 0.9152 0.0000
vt 0.0848 0.0848 0.0000
vt 0.0687 0.9105 0.0000
vt 0.0687 0.9084 0.0000
vt 0.1104 0.9313 0.0000
vt 0.8896 0.9313 0.0000
vt 0.0687 0.5144 0.0000
vt 0.0687 0.8898 0.0000
vt 0.0687 0.8979 0.0000
vt 0.9313 0.8979 0.0000
vt 0.9313 0.8898 0.0000
vt 0.9313 0.5144 0.0000
vt 0.0687 0.1105 0.0000
vt 0.0687 0.1176 0.0000
vt 0.8896 0.0687 0.0000
vt 0.1104 0.0687 0.0000
vt 0.9313 0.1176 0.0000
vt 0.9313 0.1105 0.0000
vt 0.0485 0.0000 0.0000
vt 0.0485 1.0000 0.0000
vt 0.0832 0.0000 0.0000
vt 0.0832 1.0000 0.0000
vt 0.1089 0.0000 0.0000
vt 0.1089 1.0000 0.0000
vt 0.1437 0.0000 0.0000
vt 0.1437 1.0000 0.0000
vt 0.1921 0.0000 0.0000
vt 0.1921 1.0000 0.0000
vt 0.2000 0.0000 0.0000
vt 0.2000 1.0000 0.0000
vt 0.2485 0.0000 0.0000
vt 0.2485 1.0000 0.0000
vt 0.2832 0.0000 0.0000
vt 0.2832 1.0000 0.0000
vt 0.3089 0.0000 0.0000
vt 0.3089 1.0000 0.0000
vt 0.3437 0.0000 0.0000
vt 0.3437 1.0000 0.0000
vt 0.3921 0.0000 0.0000
vt 0.3921 1.0000 0.0000
vt 0.4000 0.0000 0.0000
vt 0.4000 1.0000 0.0000
vt 0.4485 0.0000 0.0000
vt 0.4485 1.0000 0.0000
vt 0.4832 0.0000 0.0000
vt 0.4832 1.0000 0.0000
vt 0.5089 0.0000 0.0000
vt 0.5089 1.0000 0.0000
vt 0.5437 0.0000 0.0000
vt 0.5437 1.0000 0.0000
vt 0.5921 0.0000 0.0000
vt 0.5921 1.0000 0.0000
vt 0.6000 0.0000 0.0000
vt 0.6000 1.0000 0.0000
vt 0.6485 0.0000 0.0000
vt 0.6485 1.0000 0.0000
vt 0.6832 0.0000 0.0000
vt 0.6832 1.0000 0.0000
vt 0.7089 0.0000 0.0000
vt 0.7089 1.0000 0.0000
vt 0.7437 0.0000 0.0000
vt 0.7437 1.0000 0.0000
vt 0.7921 0.0000 0.0000
vt 0.7921 1.0000 0.0000
vt 0.8000 0.0000 0.0000
vt 0.8000 1.0000 0.0000
vt 0.8485 0.0000 0.0000
vt 0.8485 1.0000 0.0000
vt 0.8832 0.0000 0.0000
vt 0.8832 1.0000 0.0000
vt 0.9089 0.0000 0.0000
vt 0.9089 1.0000 0.0000
vt 0.9437 0.0000 0.0000
vt 0.9437 1.0000 0.0000
vt 0.9921 0.0000 0.0000
vt 0.9921 1.0000 0.0000
# 90 texture coords

g Mill
s off
f 1/1/1 2/2/1 3/3/1 
f 3/3/1 4/4/1 1/1/1 
f 5/1/2 1/2/2 4/3/2 
f 4/3/2 6/4/2 5/1/2 
f 7/1/2 5/2/2 6/3/2 
f 6/3/2 8/4/2 7/1/2 
f 9/5/3 10/6/3 11/7/3 
f 11/7/3 12/8/3 9/5/3 
f 13/9/4 14/10/4 15/11/4 
f 15/11/4 16/12/4 13/9/4 
f 17/2/2 18/3/2 19/4/2 
f 19/4/2 20/1/2 17/2/2 
f 21/12/5 22/11/5 23/4/5 
f 23/4/5 24/1/5 21/12/5 
f 25/13/6 21/12/6 24/1/6 
f 24/1/6 26/2/6 25/13/6 
f 27/14/7 25/13/7 26/2/7 
f 26/2/7 28/3/7 27/14/7 
f 22/11/8 27/14/8 28/3/8 
f 28/3/8 23/4/8 22/11/8 
f 29/1/9 7/2/9 8/3/9 
f 8/3/9 30/4/9 29/1/9 
f 31/1/10 32/2/10 33/3/10 
f 33/3/10 34/4/10 31/1/10 
f 35/1/11 31/2/11 34/3/11 
f 34/3/11 36/4/11 35/1/11 
f 37/1/2 35/2/2 36/3/2 
f 36/3/2 38/4/2 37/1/2 
f 32/1/12 37/2/12 38/3/12 
f 38/3/12 33/4/12 32/1/12 
f 39/1/10 40/2/10 41/3/10 
f 41/3/10 42/4/10 39/1/10 
f 43/13/13 44/14/13 14/10/13 
f 14/10/13 13/9/13 43/13/13 
f 16/1/14 15/2/14 45/3/14 
f 45/3/14 46/4/14 16/1/14 
f 47/4/15 13/1/15 16/2/15 
f 16/2/15 46/3/15 47/4/15 
f 15/1/16 14/2/16 48/3/16 
f 48/3/16 45/4/16 15/1/16 
f 43/13/17 13/9/17 47/9/17 
f 47/9/17 49/13/17 43/13/17 
f 44/1/18 43/13/18 49/13/18 
f 49/13/18 50/4/18 44/1/18 
f 48/4/19 14/1/19 44/2/19 
f 44/2/19 50/3/19 48/4/19 
f 18/3/3 51/15/3 52/16/3 
f 52/16/3 19/4/3 18/3/3 
f 53/1/12 39/2/12 42/3/12 
f 42/3/12 54/4/12 53/1/12 
f 55/1/2 53/2/2 54/3/2 
f 54/3/2 56/4/2 55/1/2 
f 40/1/11 55/2/11 56/3/11 
f 56/3/11 41/4/11 40/1/11 
f 12/1/20 11/2/20 52/3/20 
f 52/3/20 51/4/20 12/1/20 
f 9/1/21 12/2/21 51/3/21 
f 51/3/21 57/4/21 9/1/21 
f 10/1/22 9/2/22 57/3/22 
f 57/3/22 58/4/22 10/1/22 
f 11/1/23 10/2/23 58/3/23 
f 58/3/23 52/4/23 11/1/23 
f 59/1/12 60/2/12 21/3/12 
f 21/3/12 25/4/12 59/1/12 
f 61/1/12 59/2/12 25/3/12 
f 25/3/12 49/4/12 61/1/12 
f 47/4/12 62/1/12 61/2/12 
f 61/2/12 49/3/12 47/4/12 
f 63/1/12 62/2/12 47/3/12 
f 47/3/12 46/4/12 63/1/12 
f 60/1/12 63/2/12 46/3/12 
f 46/3/12 21/4/12 60/1/12 
f 3/1/11 30/2/11 27/3/11 
f 27/3/11 22/4/11 3/1/11 
f 4/1/11 3/2/11 22/3/11 
f 22/3/11 45/4/11 4/1/11 
f 48/4/11 6/1/11 4/2/11 
f 4/2/11 45/3/11 48/4/11 
f 8/1/11 6/2/11 48/3/11 
f 48/3/11 50/4/11 8/1/11 
f 30/1/11 8/2/11 50/3/11 
f 50/3/11 27/4/11 30/1/11 
f 34/1/9 33/2/9 22/3/9 
f 22/3/9 21/4/9 34/1/9 
f 36/1/9 34/2/9 21/3/9 
f 21/3/9 46/4/9 36/1/9 
f 38/1/9 36/2/9 46/3/9 
f 46/3/9 45/4/9 38/1/9 
f 33/1/9 38/2/9 45/3/9 
f 45/3/9 22/4/9 33/1/9 
f 42/17/1 41/2/1 25/3/1 
f 25/3/1 27/14/1 42/17/1 
f 54/18/1 42/17/1 27/14/1 
f 27/14/1 50/14/1 54/18/1 
f 56/1/1 54/18/1 50/14/1 
f 50/14/1 49/4/1 56/1/1 
f 41/1/1 56/2/1 49/3/1 
f 49/3/1 25/4/1 41/1/1 
f 64/1/10 65/2/10 60/3/10 
f 60/3/10 59/4/10 64/1/10 
f 66/1/9 64/2/9 59/3/9 
f 59/3/9 61/4/9 66/1/9 
f 67/1/2 66/2/2 61/3/2 
f 61/3/2 62/4/2 67/1/2 
f 68/1/2 67/2/2 62/3/2 
f 62/3/2 63/4/2 68/1/2 
f 65/1/1 68/2/1 63/3/1 
f 63/3/1 60/4/1 65/1/1 
f 2/1/10 29/2/10 30/3/10 
f 30/3/10 3/4/10 2/1/10 
f 24/2/24 23/3/24 18/4/24 
f 18/4/24 17/1/24 24/2/24 
f 26/2/25 24/3/25 17/4/25 
f 17/4/25 20/1/25 26/2/25 
f 28/2/26 26/3/26 20/4/26 
f 20/4/26 19/1/26 28/2/26 
f 53/19/1 55/20/1 40/20/1 
f 40/20/1 39/19/1 53/19/1 
f 5/21/11 7/22/11 29/23/11 
f 64/24/12 66/25/12 67/26/12 
f 5/21/11 29/23/11 2/27/11 
f 2/27/11 1/28/11 5/21/11 
f 57/1/3 51/15/3 18/3/3 
f 18/3/3 23/4/3 57/1/3 
f 58/1/3 57/2/3 23/3/3 
f 23/3/3 28/4/3 58/1/3 
f 19/4/3 52/16/3 58/2/3 
f 58/2/3 28/3/3 19/4/3 
f 35/29/9 37/30/9 32/30/9 
f 32/30/9 31/29/9 35/29/9 
f 67/26/12 68/31/12 65/32/12 
f 65/32/12 64/24/12 67/26/12 
f 69/33/27 70/34/27 71/3/27 
f 71/3/27 72/4/27 69/33/27 
f 73/35/28 74/36/28 70/34/28 
f 70/34/28 69/33/28 73/35/28 
f 75/37/29 76/38/29 74/36/29 
f 74/36/29 73/35/29 75/37/29 
f 77/39/30 78/40/30 76/38/30 
f 76/38/30 75/37/30 77/39/30 
f 79/41/31 80/42/31 78/40/31 
f 78/40/31 77/39/31 79/41/31 
f 81/43/32 82/44/32 80/42/32 
f 80/42/32 79/41/32 81/43/32 
f 83/45/33 84/46/33 82/44/33 
f 82/44/33 81/43/33 83/45/33 
f 85/47/34 86/48/34 84/46/34 
f 84/46/34 83/45/34 85/47/34 
f 87/49/35 88/50/35 86/48/35 
f 86/48/35 85/47/35 87/49/35 
f 89/51/36 90/52/36 88/50/36 
f 88/50/36 87/49/36 89/51/36 
f 91/53/37 92/54/37 90/52/37 
f 90/52/37 89/51/37 91/53/37 
f 93/55/31 94/56/31 92/54/31 
f 92/54/31 91/53/31 93/55/31 
f 95/57/32 96/58/32 94/56/32 
f 94/56/32 93/55/32 95/57/32 
f 97/59/38 98/60/38 96/58/38 
f 96/58/38 95/57/38 97/59/38 
f 99/61/39 100/62/39 98/60/39 
f 98/60/39 97/59/39 99/61/39 
f 101/63/40 102/64/40 100/62/40 
f 100/62/40 99/61/40 101/63/40 
f 103/65/27 104/66/27 102/64/27 
f 102/64/27 101/63/27 103/65/27 
f 105/67/37 106/68/37 104/66/37 
f 104/66/37 103/65/37 105/67/37 
f 107/69/31 108/70/31 106/68/31 
f 106/68/31 105/67/31 107/69/31 
f 109/71/41 110/72/41 108/70/41 
f 108/70/41 107/69/41 109/71/41 
f 111/73/42 112/74/42 110/72/42 
f 110/72/42 109/71/42 111/73/42 
f 113/75/43 114/76/43 112/74/43 
f 112/74/43 111/73/43 113/75/43 
f 115/77/33 116/78/33 114/76/33 
f 114/76/33 113/75/33 115/77/33 
f 117/79/27 118/80/27 116/78/27 
f 116/78/27 115/77/27 117/79/27 
f 119/81/37 120/82/37 118/80/37 
f 118/80/37 117/79/37 119/81/37 
f 121/83/44 122/84/44 120/82/44 
f 120/82/44 119/81/44 121/83/44 
f 123/85/45 124/86/45 122/84/45 
f 122/84/45 121/83/45 123/85/45 
f 125/87/46 126/88/46 124/86/46 
f 124/86/46 123/85/46 125/87/46 
f 127/89/32 128/90/32 126/88/32 
f 126/88/32 125/87/32 127/89/32 
f 72/1/33 71/2/33 128/90/33 
f 128/90/33 127/89/33 72/1/33 
f 82/3/47 94/3/47 106/3/47 
f 106/3/12 128/3/12 82/3/12 
f 74/3/47 76/3/47 78/3/47 
f 78/3/12 70/3/12 74/3/12 
f 71/3/12 70/3/12 78/3/12 
f 78/3/12 80/3/12 71/3/12 
f 128/3/12 71/3/12 80/3/12 
f 80/3/12 82/3/12 128/3/12 
f 120/3/12 126/3/12 128/3/12 
f 128/3/12 118/3/12 120/3/12 
f 116/3/48 118/3/48 128/3/48 
f 128/3/47 106/3/47 116/3/47 
f 124/3/12 126/3/12 120/3/12 
f 120/3/12 122/3/12 124/3/12 
f 96/3/12 102/3/12 104/3/12 
f 104/3/12 94/3/12 96/3/12 
f 129/3/49 130/3/49 81/3/49 
f 81/3/11 79/3/11 129/3/11 
f 114/3/12 116/3/12 106/3/12 
f 106/3/12 108/3/12 114/3/12 
f 110/3/47 112/3/47 114/3/47 
f 114/3/12 108/3/12 110/3/12 
f 94/3/50 104/3/50 106/3/50 
f 131/3/11 129/3/11 79/3/11 
f 79/3/51 77/3/51 131/3/51 
f 100/3/12 102/3/12 96/3/12 
f 96/3/47 98/3/47 100/3/47 
f 88/3/47 90/3/47 84/3/47 
f 84/3/47 86/3/47 88/3/47 
f 82/3/52 92/3/52 94/3/52 
f 92/3/47 82/3/47 84/3/47 
f 84/3/12 90/3/12 92/3/12 
f 132/3/53 131/3/53 77/3/53 
f 77/3/11 75/3/11 132/3/11 
f 133/3/11 132/3/11 75/3/11 
f 75/3/11 73/3/11 133/3/11 
f 69/3/51 134/3/51 133/3/51 
f 133/3/49 73/3/49 69/3/49 
f 72/3/54 135/3/54 134/3/54 
f 134/3/53 69/3/53 72/3/53 
f 105/3/11 136/3/11 137/3/11 
f 137/3/49 107/3/49 105/3/49 
f 138/3/49 137/3/49 136/3/49 
f 136/3/49 139/3/49 138/3/49 
f 140/3/11 141/3/11 142/3/11 
f 142/3/49 143/3/49 140/3/49 
f 144/3/49 136/3/49 143/3/49 
f 145/3/11 146/3/11 147/3/11 
f 147/3/11 148/3/11 145/3/11 
f 149/3/11 145/3/11 148/3/11 
f 148/3/11 150/3/11 149/3/11 
f 151/3/49 152/3/49 149/3/49 
f 149/3/11 150/3/11 151/3/11 
f 131/3/49 134/3/49 135/3/49 
f 135/3/55 129/3/55 131/3/55 
f 153/3/49 154/3/49 130/3/49 
f 130/3/11 155/3/11 153/3/11 
f 148/3/56 135/3/56 72/3/56 
f 72/3/55 127/3/55 148/3/55 
f 132/3/11 133/3/11 134/3/11 
f 134/3/49 131/3/49 132/3/49 
f 150/3/57 148/3/57 127/3/57 
f 127/3/58 125/3/58 150/3/58 
f 151/3/58 150/3/58 125/3/58 
f 125/3/49 123/3/49 151/3/49 
f 152/3/49 151/3/49 123/3/49 
f 123/3/11 121/3/11 152/3/11 
f 142/3/11 156/3/11 144/3/11 
f 144/3/11 143/3/11 142/3/11 
f 146/3/49 145/3/49 139/3/49 
f 157/3/49 130/3/49 129/3/49 
f 157/3/11 147/3/11 146/3/11 
f 158/3/49 154/3/49 153/3/49 
f 153/3/11 159/3/11 158/3/11 
f 129/3/55 135/3/55 147/3/55 
f 147/3/49 157/3/49 129/3/49 
f 148/3/58 147/3/58 135/3/58 
f 144/3/49 146/3/49 139/3/49 
f 139/3/49 136/3/49 144/3/49 
f 156/3/49 142/3/49 155/3/49 
f 130/3/49 157/3/49 156/3/49 
f 156/3/49 155/3/49 130/3/49 
f 137/3/11 138/3/11 160/3/11 
f 160/3/11 161/3/11 137/3/11 
f 162/3/11 141/3/11 140/3/11 
f 140/3/11 163/3/11 162/3/11 
f 119/3/57 149/3/57 152/3/57 
f 152/3/11 121/3/11 119/3/11 
f 117/3/11 145/3/11 149/3/11 
f 149/3/58 119/3/58 117/3/58 
f 139/3/11 145/3/11 117/3/11 
f 117/3/53 115/3/53 139/3/53 
f 138/3/55 139/3/55 115/3/55 
f 115/3/55 113/3/55 138/3/55 
f 160/3/51 138/3/51 113/3/51 
f 113/3/49 111/3/49 160/3/49 
f 161/3/49 160/3/49 111/3/49 
f 111/3/11 109/3/11 161/3/11 
f 107/3/49 137/3/49 161/3/49 
f 161/3/49 109/3/49 107/3/49 
f 146/3/11 144/3/11 156/3/11 
f 156/3/11 157/3/11 146/3/11 
f 143/3/49 136/3/49 105/3/49 
f 105/3/49 103/3/49 143/3/49 
f 140/3/11 143/3/11 103/3/11 
f 103/3/54 101/3/54 140/3/54 
f 163/3/57 140/3/57 101/3/57 
f 101/3/11 99/3/11 163/3/11 
f 162/3/49 163/3/49 99/3/49 
f 99/3/49 97/3/49 162/3/49 
f 95/3/49 141/3/49 162/3/49 
f 162/3/49 97/3/49 95/3/49 
f 93/3/11 142/3/11 141/3/11 
f 141/3/49 95/3/49 93/3/49 
f 155/3/11 142/3/11 93/3/11 
f 93/3/59 91/3/59 155/3/59 
f 153/3/60 155/3/60 91/3/60 
f 91/3/58 89/3/58 153/3/58 
f 159/3/55 153/3/55 89/3/55 
f 89/3/49 87/3/49 159/3/49 
f 158/3/54 159/3/54 87/3/54 
f 87/3/53 85/3/53 158/3/53 
f 83/3/11 154/3/11 158/3/11 
f 158/3/61 85/3/61 83/3/61 
f 81/3/11 130/3/11 154/3/11 
f 154/3/49 83/3/49 81/3/49 
# 318 faces

